HIERARCHY
ROOT hip
{
  OFFSET 0 0 0
  CHANNELS 6 Xposition Yposition Zposition Zrotation Yrotation Xrotation
  JOINT abdomen
  {
    OFFSET 0 20.6881 -0.73152
    CHANNELS 3 Zrotation Xrotation Yrotation
    JOINT chest
    {
      OFFSET 0 11.7043 -0.48768
      CHANNELS 3 Zrotation Xrotation Yrotation
      JOINT neck
      {
        OFFSET 0 22.1894 -2.19456
        CHANNELS 3 Zrotation Xrotation Yrotation
        JOINT head
        {
          OFFSET -0.24384 7.07133 1.2192
          CHANNELS 3 Zrotation Xrotation Yrotation
          JOINT leftEye
          {
            OFFSET 4.14528 8.04674 8.04672
            CHANNELS 3 Zrotation Xrotation Yrotation
            End Site
            {
              OFFSET 1 0 0
            }
          }
          JOINT rightEye
          {
            OFFSET -3.6576 8.04674 8.04672
            CHANNELS 3 Zrotation Xrotation Yrotation
            End Site
            {
              OFFSET 1 0 0
            }
          }
        }
      }
      JOINT rCollar
      {
        OFFSET -2.68224 19.2634 -4.8768
        CHANNELS 3 Zrotation Xrotation Yrotation
        JOINT rShldr
        {
          OFFSET -8.77824 -1.95073 1.46304
          CHANNELS 3 Zrotation Xrotation Yrotation
          JOINT rForeArm
          {
            OFFSET -28.1742 -1.7115 0.48768
            CHANNELS 3 Zrotation Xrotation Yrotation
            JOINT rHand
            {
              OFFSET -22.5879 0.773209 7.07136
              CHANNELS 3 Zrotation Xrotation Yrotation
              JOINT rThumb1
              {
                OFFSET -1.2192 -0.487915 3.41376
                CHANNELS 3 Zrotation Xrotation Yrotation
                JOINT rThumb2
                {
                  OFFSET -3.37035 -0.52449 3.41376
                  CHANNELS 3 Zrotation Xrotation Yrotation
                  End Site
                  {
                    OFFSET -1.78271 -1.18214 1.43049
                  }
                }
              }
              JOINT rIndex1
              {
                OFFSET -7.75947 0.938293 5.60832
                CHANNELS 3 Zrotation Xrotation Yrotation
                JOINT rIndex2
                {
                  OFFSET -2.54057 -0.884171 1.56538
                  CHANNELS 3 Zrotation Xrotation Yrotation
                  End Site
                  {
                    OFFSET -1.62519 -0.234802 1.16502
                  }
                }
              }
              JOINT rMid1
              {
                OFFSET -8.24714 1.18213 3.41376
                CHANNELS 3 Zrotation Xrotation Yrotation
                JOINT rMid2
                {
                  OFFSET -3.10165 -0.590103 1.0647
                  CHANNELS 3 Zrotation Xrotation Yrotation
                  End Site
                  {
                    OFFSET -2.48547 -0.328903 0.83742
                  }
                }
              }
              JOINT rRing1
              {
                OFFSET -8.82822 0.546677 1.51678
                CHANNELS 3 Zrotation Xrotation Yrotation
                JOINT rRing2
                {
                  OFFSET -2.60934 -0.819778 -0.0198488
                  CHANNELS 3 Zrotation Xrotation Yrotation
                  End Site
                  {
                    OFFSET -2.33842 -0.294052 0.168128
                  }
                }
              }
              JOINT rPinky1
              {
                OFFSET -8.27202 -0.0477905 -0.4584
                CHANNELS 3 Zrotation Xrotation Yrotation
                JOINT rPinky2
                {
                  OFFSET -1.82734 -0.647385 -0.700984
                  CHANNELS 3 Zrotation Xrotation Yrotation
                  End Site
                  {
                    OFFSET -1.69225 -0.51767 -0.607171
                  }
                }
              }
            }
          }
        }
      }
      JOINT lCollar
      {
        OFFSET 2.68224 19.2634 -4.8768
        CHANNELS 3 Zrotation Xrotation Yrotation
        JOINT lShldr
        {
          OFFSET 8.77824 -1.95073 1.46304
          CHANNELS 3 Zrotation Xrotation Yrotation
          JOINT lForeArm
          {
            OFFSET 28.1742 -1.7115 0.48768
            CHANNELS 3 Zrotation Xrotation Yrotation
            JOINT lHand
            {
              OFFSET 22.5879 0.773209 7.07136
              CHANNELS 3 Zrotation Xrotation Yrotation
              JOINT lThumb1
              {
                OFFSET 1.2192 -0.487915 3.41376
                CHANNELS 3 Zrotation Xrotation Yrotation
                JOINT lThumb2
                {
                  OFFSET 3.37035 -0.52449 3.41376
                  CHANNELS 3 Zrotation Xrotation Yrotation
                  End Site
                  {
                    OFFSET 1.78271 -1.18214 1.43049
                  }
                }
              }
              JOINT lIndex1
              {
                OFFSET 7.75947 0.938293 5.60832
                CHANNELS 3 Zrotation Xrotation Yrotation
                JOINT lIndex2
                {
                  OFFSET 2.54057 -0.884171 1.56538
                  CHANNELS 3 Zrotation Xrotation Yrotation
                  End Site
                  {
                    OFFSET 1.62519 -0.234802 1.16502
                  }
                }
              }
              JOINT lMid1
              {
                OFFSET 8.24714 1.18213 3.41376
                CHANNELS 3 Zrotation Xrotation Yrotation
                JOINT lMid2
                {
                  OFFSET 3.10165 -0.590103 1.0647
                  CHANNELS 3 Zrotation Xrotation Yrotation
                  End Site
                  {
                    OFFSET 2.48547 -0.328903 0.83742
                  }
                }
              }
              JOINT lRing1
              {
                OFFSET 8.82822 0.546677 1.51678
                CHANNELS 3 Zrotation Xrotation Yrotation
                JOINT lRing2
                {
                  OFFSET 2.60934 -0.819778 -0.0198488
                  CHANNELS 3 Zrotation Xrotation Yrotation
                  End Site
                  {
                    OFFSET 2.33842 -0.294052 0.168128
                  }
                }
              }
              JOINT lPinky1
              {
                OFFSET 8.27202 -0.0477905 -0.4584
                CHANNELS 3 Zrotation Xrotation Yrotation
                JOINT lPinky2
                {
                  OFFSET 1.82734 -0.647385 -0.700984
                  CHANNELS 3 Zrotation Xrotation Yrotation
                  End Site
                  {
                    OFFSET 1.69225 -0.51767 -0.607171
                  }
                }
              }
            }
          }
        }
      }
    }
  }
  JOINT rButtock
  {
    OFFSET -8.77824 4.35084 1.2192
    CHANNELS 3 Zrotation Xrotation Yrotation
    JOINT rThigh
    {
      OFFSET 0 -1.70687 -2.19456
      CHANNELS 3 Zrotation Xrotation Yrotation
      JOINT rShin
      {
        OFFSET 0 -36.8199 0.73152
        CHANNELS 3 Zrotation Xrotation Yrotation
        JOINT rFoot
        {
          OFFSET 0.73152 -45.1104 -5.12064
          CHANNELS 3 Zrotation Xrotation Yrotation
          End Site
          {
            OFFSET -1.1221 -3.69964 12.103
          }
        }
      }
    }
  }
  JOINT lButtock
  {
    OFFSET 8.77824 4.35084 1.2192
    CHANNELS 3 Zrotation Xrotation Yrotation
    JOINT lThigh
    {
      OFFSET 0 -1.70687 -2.19456
      CHANNELS 3 Zrotation Xrotation Yrotation
      JOINT lShin
      {
        OFFSET 0 -36.8199 0.73152
        CHANNELS 3 Zrotation Xrotation Yrotation
        JOINT lFoot
        {
          OFFSET -0.73152 -45.1104 -5.12064
          CHANNELS 3 Zrotation Xrotation Yrotation
          End Site
          {
            OFFSET 1.1221 -3.69964 12.103
          }
        }
      }
    }
  }
}
MOTION
Frames:	4
Frame Time:	0.03333
0.0 0.0 0.0 0.0 0.0 0.0 0.0 0.0 0.0 0.0 0.0 0.0 0.0 0.0 0.0 0.0 0.0 0.0 0.0 0.0 0.0 0.0 0.0 0.0 0.0 0.0 0.0 0.0 0.0 0.0 0.0 0.0 0.0 0.0 0.0 0.0 0.0 0.0 0.0 0.0 0.0 0.0 0.0 0.0 0.0 0.0 0.0 0.0 0.0 0.0 0.0 0.0 0.0 0.0 0.0 0.0 0.0 0.0 0.0 0.0 0.0 0.0 0.0 0.0 0.0 0.0 0.0 0.0 0.0 0.0 0.0 0.0 0.0 0.0 0.0 0.0 0.0 0.0 0.0 0.0 0.0 0.0 0.0 0.0 0.0 0.0 0.0 0.0 0.0 0.0 0.0 0.0 0.0 0.0 0.0 0.0 0.0 0.0 0.0 0.0 0.0 0.0 0.0 0.0 0.0 0.0 0.0 0.0 0.0 0.0 0.0 0.0 0.0 0.0 0.0 0.0 0.0 0.0 0.0 0.0 0.0 0.0 0.0 0.0 0.0 0.0 0.0 0.0 0.0 0.0 0.0 0.0
0.327 66.512 -0.5067999999999999 179.960423 33.838567 177.931427 -0.159675 3.38116 0.002776 0.4795 10.071698 -1.235473 0.799083 -19.453052 -10.519678 38.848055 -6.855083 70.486283 -172.788554 1.942806 30.120429 10.95052 8.665361 76.646853 -84.196957 -29.948373 156.164556 1.569112 18.144133 17.267414 70.04499 78.281566 39.37448 68.347339 -0.28839 -18.287785 -8.592168 -17.824852 19.228256 123.607604 44.092033 21.845058 -128.913275 3.001907 99.774022 20.420877 -5.12128 -163.701236 -77.584196 -60.75269 156.588118 32.456513 -22.259244 109.417722 136.135403 -25.506723 -82.969712 115.253404 10.43117 157.031918 -177.933223 17.423812 -96.972036 -109.180423 65.06329 142.302267 -71.400885 20.388196 -15.302819 9.125658 75.15764 -21.330981 176.4535 1.557424 27.109873 -153.618746 -19.471903 -42.307603 174.121277 14.460718 -33.745077 173.535835 -18.98251 -115.464197 -169.68872 -29.744957 135.898113 19.959861 4.851859 167.868261 36.188081 48.239851 83.400898 178.568132 -32.788397 166.803056 102.743828 -6.379183 171.042589 -85.431402 -34.373243 -91.752761 125.468247 9.212923 95.895511 110.541618 9.307403 168.778715 6.735263 -52.80166 0.130111 -12.684175 52.905983 -164.242693 -6.590671 -1.982735 -72.056471 -64.22647 58.195912 76.676618 -33.726506 -61.47657 -37.227931 3.545102 67.833565 159.982084 -0.781117 -6.836514 -34.671139 -79.220558 6.297612 93.148721
1.2989000000000002 60.2794 0.462 -174.011623 -8.529525 177.373494 4.746671 17.435369 -1.236146 -2.9523 -6.45485 13.932465 5.349548 11.560722 47.281545 -33.767241 -25.545841 -55.233666 150.916445 -20.419359 69.545809 -10.229637 -3.474067 37.433711 11.21255 0.422158 5.265757 -121.191096 -11.572777 178.066553 89.609409 15.801623 -106.989945 -158.989149 55.928227 139.152091 -171.705541 33.722325 85.138177 72.574038 -46.701426 82.353089 -164.404225 31.913072 109.92879 -149.496268 42.106689 57.837961 95.679211 -64.115659 77.86802 -28.372134 52.309766 -39.53238 -90.300328 -1.688142 -86.650364 -4.550164 61.107365 135.462678 33.527069 74.99231 46.372503 -61.067123 -12.138379 -43.443846 134.997263 13.080855 -142.220604 -123.887032 -47.345896 -144.737084 -169.879902 48.08343 -111.251572 -159.295024 -12.416709 -139.071951 93.925841 35.328475 -30.540448 -13.406228 29.063315 -9.738064 17.869775 -30.217139 -9.844325 49.040207 62.563909 -49.057215 133.679755 -75.942869 119.541083 -117.426712 59.02827 70.368169 -28.782091 3.112904 1.513111 56.364577 -62.497589 17.495907 95.622264 65.446835 -162.047328 6.398444 6.69074 13.069846 8.719835 10.711524 -39.529566 -8.186182 -29.744243 111.799179 33.761945 -3.366223 -80.12246 -4.143178 12.435992 -12.87127 -35.496182 79.071685 -180.0 -117.270218 21.635187 -33.904274 10.148876 46.22137 -95.963856 -12.616275 -25.887065 85.045493
2.2409 59.97169999999999 2.3497 -171.475274 -5.406533 176.270673 3.125195 26.240163 82.686272 -16.440576 0.263517 -58.488199 11.142253 21.054563 -18.793471 10.844958 -41.172824 19.071503 5.792142 0.396602 7.827511 -90.843055 6.522764 6.61924 7.220392 -0.890295 -9.300416 56.330896 21.043129 -2.222588 -6.43458 5.207359 57.436166 -5.951216 11.314286 -1.972976 81.135851 -70.826475 61.848133 -38.6592 66.374496 19.030374 4.685608 -73.45372 0.978669 -153.11903 44.035126 170.115686 -66.617977 39.219981 39.25464 -142.417047 -49.627246 129.150937 -0.293488 3.29598 -26.396861 -134.78717 12.23219 122.313407 -121.196241 38.578427 -169.125248 19.449896 -11.921054 -62.476415 -92.440602 -66.52548 -75.683122 -93.435197 47.034594 94.28883 -168.722788 3.404029 -109.691262 -163.854035 -15.226199 -146.64018 54.022179 25.525369 2.355469 -55.016011 -46.992853 -39.307481 11.780377 -23.49815 -5.268329 157.447492 9.232396 -130.548982 168.22428 1.162197 -167.034472 82.781468 -45.836021 112.221236 70.439704 56.127827 -96.652872 0.142417 -41.49817 48.946903 86.722828 50.734384 -146.158745 134.380793 13.913202 141.397562 24.75479 -11.411126 -0.0 -42.80817 7.065211 -180.0 3.477243 -49.943758 91.059887 84.870686 57.524748 3.097453 81.74605 66.54422 56.125023 -110.99398 -10.419265 114.57557 33.399825 -49.884401 -130.029116 87.302923 -27.404904 -34.514293
